<svg preserveAspectRatio="none" width="100%" height="100%" overflow="visible" style="display: block;" viewBox="0 0 187.571 35.0415" fill="none" xmlns="http://www.w3.org/2000/svg">
<g id="Hay Studio">
<path id="Vector" d="M177.907 28.0612C175.921 28.0612 174.203 27.6393 172.755 26.7956C171.314 25.9433 170.202 24.7587 169.418 23.2416C168.634 21.716 168.242 19.9476 168.242 17.9362C168.242 15.9078 168.634 14.1351 169.418 12.618C170.202 11.0925 171.314 9.9078 172.755 9.06405C174.203 8.21178 175.921 7.78564 177.907 7.78564C179.892 7.78564 181.605 8.21178 183.046 9.06405C184.495 9.9078 185.611 11.0925 186.395 12.618C187.179 14.1351 187.571 15.9078 187.571 17.9362C187.571 19.9476 187.179 21.716 186.395 23.2416C185.611 24.7587 184.495 25.9433 183.046 26.7956C181.605 27.6393 179.892 28.0612 177.907 28.0612ZM177.932 23.8425C178.836 23.8425 179.59 23.5868 180.195 23.0754C180.8 22.5555 181.256 21.8481 181.563 20.9533C181.878 20.0584 182.036 19.0399 182.036 17.8979C182.036 16.7558 181.878 15.7373 181.563 14.8425C181.256 13.9476 180.8 13.2402 180.195 12.7203C179.59 12.2004 178.836 11.9405 177.932 11.9405C177.02 11.9405 176.253 12.2004 175.631 12.7203C175.017 13.2402 174.553 13.9476 174.238 14.8425C173.931 15.7373 173.777 16.7558 173.777 17.8979C173.777 19.0399 173.931 20.0584 174.238 20.9533C174.553 21.8481 175.017 22.5555 175.631 23.0754C176.253 23.5868 177.02 23.8425 177.932 23.8425Z" fill="var(--fill-0, black)"/>
<path id="Vector_2" d="M159.226 27.6776V8.04119H164.672V27.6776H159.226ZM161.962 5.50994C161.152 5.50994 160.457 5.24148 159.878 4.70455C159.307 4.15909 159.021 3.5071 159.021 2.74858C159.021 1.99858 159.307 1.35511 159.878 0.818183C160.457 0.272727 161.152 0 161.962 0C162.771 0 163.462 0.272727 164.033 0.818183C164.612 1.35511 164.902 1.99858 164.902 2.74858C164.902 3.5071 164.612 4.15909 164.033 4.70455C163.462 5.24148 162.771 5.50994 161.962 5.50994Z" fill="var(--fill-0, black)"/>
<path id="Vector_3" d="M143.575 27.9975C142.083 27.9975 140.733 27.614 139.522 26.8469C138.321 26.0714 137.366 24.9336 136.659 23.4336C135.96 21.9251 135.61 20.0756 135.61 17.8853C135.61 15.6353 135.973 13.7646 136.697 12.2731C137.421 10.7731 138.385 9.65234 139.586 8.91087C140.797 8.16087 142.122 7.78587 143.562 7.78587C144.662 7.78587 145.578 7.97337 146.311 8.34837C147.052 8.71484 147.649 9.17507 148.1 9.72905C148.561 10.2745 148.91 10.8114 149.149 11.3398H149.315V1.49609H154.748V27.6779H149.379V24.533H149.149C148.893 25.0785 148.531 25.6197 148.062 26.1566C147.602 26.685 147.001 27.1239 146.26 27.4734C145.527 27.8228 144.632 27.9975 143.575 27.9975ZM145.301 23.6637C146.179 23.6637 146.92 23.4251 147.525 22.9478C148.139 22.462 148.608 21.7844 148.931 20.9151C149.264 20.0458 149.43 19.0273 149.43 17.8597C149.43 16.6921 149.268 15.6779 148.944 14.8171C148.62 13.9563 148.152 13.2915 147.538 12.8228C146.924 12.354 146.179 12.1197 145.301 12.1197C144.406 12.1197 143.652 12.3626 143.038 12.8484C142.424 13.3342 141.96 14.0075 141.645 14.8683C141.329 15.729 141.171 16.7262 141.171 17.8597C141.171 19.0018 141.329 20.0117 141.645 20.8896C141.968 21.7589 142.433 22.4407 143.038 22.935C143.652 23.4208 144.406 23.6637 145.301 23.6637Z" fill="var(--fill-0, black)"/>
<path id="Vector_4" d="M126.537 19.3171V8.0415H131.983V27.6779H126.754V24.1111H126.55C126.107 25.2617 125.369 26.1864 124.338 26.8853C123.315 27.5841 122.067 27.9335 120.592 27.9335C119.28 27.9335 118.125 27.6353 117.128 27.0387C116.131 26.4421 115.351 25.5941 114.788 24.4946C114.234 23.3952 113.953 22.0784 113.945 20.5443V8.0415H119.391V19.5728C119.399 20.7318 119.71 21.648 120.324 22.3213C120.937 22.9946 121.76 23.3313 122.791 23.3313C123.447 23.3313 124.061 23.1821 124.632 22.8838C125.203 22.577 125.663 22.1253 126.013 21.5287C126.371 20.9321 126.545 20.1949 126.537 19.3171Z" fill="var(--fill-0, black)"/>
<path id="Vector_5" d="M110.397 8.04146V12.1324H98.5717V8.04146H110.397ZM101.256 3.33691H106.702V21.6437C106.702 22.1466 106.779 22.5386 106.933 22.8199C107.086 23.0926 107.299 23.2844 107.572 23.3952C107.853 23.506 108.177 23.5613 108.543 23.5613C108.799 23.5613 109.055 23.54 109.31 23.4974C109.566 23.4463 109.762 23.4079 109.898 23.3824L110.755 27.4349C110.482 27.5202 110.099 27.6182 109.604 27.729C109.11 27.8483 108.509 27.9207 107.802 27.9463C106.489 27.9974 105.339 27.8227 104.35 27.4221C103.37 27.0216 102.607 26.3994 102.062 25.5557C101.516 24.7119 101.248 23.6466 101.256 22.3596V3.33691Z" fill="var(--fill-0, black)"/>
<path id="Vector_6" d="M90.668 9.02597C90.5657 7.99472 90.1268 7.19358 89.3512 6.62256C88.5756 6.05154 87.5231 5.76602 86.1935 5.76602C85.2901 5.76602 84.5273 5.89387 83.9052 6.14955C83.283 6.39671 82.8058 6.74188 82.4734 7.18506C82.1495 7.62824 81.9876 8.13108 81.9876 8.69358C81.9705 9.16233 82.0685 9.57142 82.2816 9.92085C82.5032 10.2703 82.8058 10.5728 83.1893 10.8285C83.5728 11.0757 84.016 11.293 84.5188 11.4805C85.0217 11.6595 85.5586 11.8129 86.1296 11.9407L88.4819 12.5032C89.6239 12.7589 90.6722 13.0998 91.6268 13.526C92.5813 13.9521 93.408 14.4763 94.1069 15.0984C94.8058 15.7206 95.3469 16.4535 95.7305 17.2973C96.1225 18.141 96.3228 19.1084 96.3313 20.1993C96.3228 21.8015 95.9137 23.1907 95.104 24.3669C94.3029 25.5345 93.1438 26.4422 91.6268 27.0899C90.1183 27.7291 88.2987 28.0487 86.168 28.0487C84.0543 28.0487 82.2134 27.7248 80.6452 27.0771C79.0856 26.4294 77.8668 25.4706 76.989 24.2007C76.1197 22.9223 75.6637 21.3413 75.6211 19.4578H80.9776C81.0373 20.3356 81.2887 21.0686 81.7319 21.6566C82.1836 22.2362 82.7844 22.6751 83.5344 22.9734C84.293 23.2632 85.1495 23.4081 86.104 23.4081C87.0415 23.4081 87.8555 23.2717 88.5458 22.999C89.2447 22.7263 89.7859 22.347 90.1694 21.8612C90.5529 21.3754 90.7447 20.8172 90.7447 20.1865C90.7447 19.5984 90.57 19.1041 90.2205 18.7035C89.8796 18.303 89.3768 17.962 88.712 17.6808C88.0558 17.3995 87.2504 17.1439 86.2958 16.9138L83.445 16.1978C81.2376 15.6609 79.4947 14.8214 78.2163 13.6794C76.9379 12.5373 76.3029 10.999 76.3114 9.06432C76.3029 7.47909 76.7248 6.09415 77.5771 4.90949C78.4379 3.72483 79.6183 2.80012 81.1183 2.13534C82.6183 1.47057 84.3228 1.13818 86.2319 1.13818C88.1751 1.13818 89.8711 1.47057 91.32 2.13534C92.7773 2.80012 93.9109 3.72483 94.7205 4.90949C95.5302 6.09415 95.9478 7.46631 95.9734 9.02597H90.668Z" fill="var(--fill-0, black)"/>
<path id="Vector_7" d="M50.299 35.0415C49.6087 35.0415 48.9609 34.9861 48.3558 34.8753C47.7592 34.773 47.2649 34.6409 46.8729 34.479L48.1001 30.4137C48.7394 30.6097 49.3146 30.7162 49.826 30.7333C50.3459 30.7503 50.7933 30.631 51.1683 30.3753C51.5519 30.1196 51.8629 29.685 52.1016 29.0713L52.4212 28.2404L45.3771 8.0415H51.1044L55.1698 22.462H55.3743L59.478 8.0415H65.2436L57.6115 29.8C57.245 30.8568 56.7465 31.7773 56.1158 32.5614C55.4936 33.354 54.7053 33.9634 53.7507 34.3895C52.7962 34.8242 51.6456 35.0415 50.299 35.0415Z" fill="var(--fill-0, black)"/>
<path id="Vector_8" d="M32.3566 28.0484C31.1037 28.0484 29.9872 27.8311 29.0071 27.3964C28.027 26.9533 27.2514 26.3013 26.6804 25.4405C26.1179 24.5712 25.8367 23.4888 25.8367 22.1933C25.8367 21.1024 26.037 20.1862 26.4375 19.4447C26.8381 18.7033 27.3835 18.1067 28.0739 17.655C28.7642 17.2033 29.5483 16.8623 30.4262 16.6322C31.3125 16.4021 32.2415 16.2402 33.2131 16.1464C34.3551 16.0271 35.2756 15.9163 35.9745 15.8141C36.6733 15.7033 37.1804 15.5413 37.4958 15.3283C37.8111 15.1152 37.9688 14.7998 37.9688 14.3822V14.3055C37.9688 13.4959 37.7131 12.8695 37.2017 12.4263C36.6989 11.9831 35.983 11.7615 35.054 11.7615C34.0739 11.7615 33.2941 11.9788 32.7145 12.4135C32.135 12.8396 31.7514 13.3766 31.5639 14.0243L26.527 13.6152C26.7827 12.422 27.2855 11.3908 28.0355 10.5214C28.7855 9.6436 29.7529 8.9703 30.9375 8.50155C32.1307 8.02428 33.5114 7.78564 35.0796 7.78564C36.1705 7.78564 37.2145 7.91349 38.2117 8.16917C39.2174 8.42485 40.108 8.82116 40.8835 9.35809C41.6676 9.89502 42.2855 10.5854 42.7372 11.4291C43.1889 12.2643 43.4148 13.2658 43.4148 14.4334V27.6777H38.25V24.9547H38.0966C37.7813 25.5683 37.3594 26.1095 36.831 26.5783C36.3026 27.0385 35.6676 27.4007 34.9262 27.6649C34.1847 27.9206 33.3281 28.0484 32.3566 28.0484ZM33.9162 24.2899C34.7174 24.2899 35.4247 24.1322 36.0384 23.8169C36.652 23.493 37.1335 23.0584 37.483 22.5129C37.8324 21.9675 38.0071 21.3496 38.0071 20.6592V18.5754C37.8367 18.6862 37.6023 18.7885 37.304 18.8822C37.0142 18.9675 36.6861 19.0484 36.3196 19.1251C35.9532 19.1933 35.5867 19.2572 35.2202 19.3169C34.8537 19.368 34.5213 19.4149 34.223 19.4575C33.5838 19.5513 33.0256 19.7004 32.5483 19.905C32.071 20.1095 31.7003 20.3865 31.4361 20.7359C31.1719 21.0768 31.0398 21.503 31.0398 22.0143C31.0398 22.7558 31.3083 23.3226 31.8452 23.7146C32.3906 24.0981 33.081 24.2899 33.9162 24.2899Z" fill="var(--fill-0, black)"/>
<path id="Vector_9" d="M0 27.6779V1.49609H5.53551V12.2987H16.7727V1.49609H22.2955V27.6779H16.7727V16.8626H5.53551V27.6779H0Z" fill="var(--fill-0, black)"/>
</g>
</svg>
